# xmcd
#
# Track frame offsets: 
#        150
#        13822
#        31799
#        46294
#        64174
#        85526
#        107261
#        124634
#        138773
#        157271
#        174833
#        192674
#        211639
#
# Disc length: 3035 seconds
#
# Revision: 6
# Processed by: cddbd v1.4PL0 Copyright (c) Steve Scherf et al.
# Submitted via: ExactAudioCopy v0.90b4
#
DISCID=9e0bd90d
DTITLE=The Superjesus - Jet Age
DYEAR=2000
DGENRE=Rock
TTITLE0=Over To You
TTITLE1=Gravity
TTITLE2=Enough To Know
TTITLE3=In Harm's Way
TTITLE4=Secret Agent Man
TTITLE5=Second Sun
TTITLE6=Fall To Rescue
TTITLE7=Everything Turns
TTITLE8=Safer Emergency
TTITLE9=When I Tell You In The End
TTITLE10=Checking In
TTITLE11=Holy Water
TTITLE12=Everybody Calls Me Lonely
EXTD=\n YEAR: 2000 ID3G: 17
EXTT0=
EXTT1=
EXTT2=
EXTT3=
EXTT4=
EXTT5=
EXTT6=
EXTT7=
EXTT8=
EXTT9=
EXTT10=
EXTT11=
EXTT12=
PLAYORDER=
